#!SHIFT: -1
#!SCALE: 10
# Blender v2.72 (sub 0) OBJ File: 'town.blend'
# www.blender.org
v 8.810850 0.000000 -8.810850
v 10.768817 0.000000 -8.810850
v 8.810850 0.000000 -10.768817
v -10.768817 0.000000 -8.810850
v -8.810850 0.000000 -8.810850
v -10.768817 0.000000 -10.768817
v -6.852883 0.000000 -8.810850
v -8.810850 0.000000 -10.768817
v -4.894917 0.000000 -8.810850
v -6.852883 0.000000 -10.768817
v -2.936950 0.000000 -8.810850
v -4.894917 0.000000 -10.768817
v -0.978984 0.000000 -8.810850
v -2.936950 0.000000 -10.768817
v 0.978983 0.000000 -8.810850
v -0.978984 0.000000 -10.768817
v 2.936950 0.000000 -8.810850
v 0.978983 0.000000 -10.768817
v 4.894917 0.000000 -8.810850
v 2.936950 0.000000 -10.768817
v 6.852883 0.000000 -8.810850
v 4.894917 0.000000 -10.768817
v 6.852883 0.000000 -10.768817
v -10.768817 -0.000000 10.768817
v -8.810850 -0.000000 10.768817
v -10.768817 -0.000000 8.810850
v -8.810850 -0.000000 8.810850
v -10.768817 -0.000000 6.852883
v -8.810850 -0.000000 6.852883
v -10.768817 -0.000000 4.894917
v -8.810850 -0.000000 4.894917
v -10.768817 -0.000000 2.936950
v -8.810850 -0.000000 2.936950
v -10.768817 -0.000000 0.978984
v -8.810850 -0.000000 0.978983
v -10.768817 0.000000 -0.978983
v -8.810850 0.000000 -0.978984
v -10.768817 0.000000 -2.936950
v -8.810850 0.000000 -2.936950
v -10.768817 0.000000 -4.894917
v -8.810850 0.000000 -4.894917
v -10.768817 0.000000 -6.852883
v -8.810850 0.000000 -6.852883
v -6.852883 -0.000000 10.768817
v -6.852883 -0.000000 6.852883
v -6.852883 4.332795 6.852883
v -6.852883 -0.000000 2.936950
v -6.852883 4.405433 2.936950
v -6.852883 -0.000000 0.978983
v -6.852883 0.000000 -0.978984
v -6.852883 0.000000 -2.936950
v -6.852883 0.000000 -4.894917
v -6.852883 0.000000 -6.852883
v -4.894917 -0.000000 10.768817
v -6.852883 -0.000000 8.810850
v -4.894917 -0.000000 8.810850
v -4.894917 -0.000000 6.852883
v -6.852883 -0.000000 4.894917
v -4.894917 -0.000000 4.894917
v -4.894917 -0.000000 2.936950
v -4.894917 -0.000000 0.978983
v -4.894917 0.000000 -0.978984
v -4.894917 0.000000 -2.936950
v -4.894917 0.000000 -4.894917
v -4.894917 0.000000 -6.852883
v -2.936950 -0.000000 10.768817
v -2.936950 -0.000000 8.810850
v -2.936950 -0.000000 6.852883
v -2.936950 -0.000000 4.894917
v -2.936950 -0.000000 2.936950
v -2.936950 -0.000000 0.978983
v -2.936950 0.000000 -0.978984
v -4.894917 2.726551 -0.978984
v -2.936950 0.000000 -4.894917
v -2.936950 2.726551 -4.894917
v -2.936950 4.432549 -8.810850
v -0.978984 -0.000000 10.768817
v -0.978984 -0.000000 8.810850
v -0.978984 -0.000000 6.852883
v -0.978984 -0.000000 4.894917
v -0.978984 -0.000000 0.978983
v -0.978984 4.981786 0.978983
v -0.978984 0.000000 -0.978984
v -2.936950 0.000000 -2.936950
v -0.978984 0.000000 -2.936950
v -0.978984 0.000000 -4.894917
v -2.936950 0.000000 -6.852883
v -0.978984 0.000000 -6.852883
v 0.978983 -0.000000 10.768817
v 0.978983 -0.000000 8.810850
v 0.978983 -0.000000 6.852883
v 0.978983 -0.000000 4.894917
v -0.978984 -0.000000 2.936950
v 0.978983 -0.000000 2.936950
v 0.978983 -0.000000 0.978983
v 0.978983 0.000000 -0.978984
v 0.978983 0.000000 -2.936950
v 0.978983 0.000000 -4.894917
v 0.978983 0.000000 -6.852883
v 2.936950 -0.000000 10.768817
v 2.936950 -0.000000 8.810850
v 2.936950 1.033242 6.852883
v 2.936950 1.033242 4.894917
v 2.936950 -0.000000 2.936950
v 2.936950 -0.000000 0.978983
v 2.936950 0.000000 -0.978984
v 4.894917 0.000000 -0.978984
v 2.936950 3.584407 -0.978984
v 2.936950 0.000000 -2.936950
v 2.936950 0.000000 -4.894917
v 0.978983 1.735797 -4.894917
v 2.936950 1.735797 -8.810850
v 4.894917 -0.000000 10.768817
v 4.894917 -0.000000 8.810850
v 4.894917 1.033242 6.852883
v 4.894917 1.033242 4.894917
v 4.894917 -0.000000 2.936950
v 4.894917 -0.000000 0.978983
v 4.894917 0.000000 -2.936950
v 4.894917 3.584407 -2.936950
v 4.894917 0.000000 -4.894917
v 2.936950 1.735797 -4.894917
v 4.894917 1.735797 -8.810850
v 6.852883 -0.000000 10.768817
v 6.852883 -1.559453 8.810850
v 6.852883 -1.559453 6.852883
v 6.852883 -1.559453 4.894917
v 6.852883 -1.559453 2.936950
v 6.852883 -0.000000 0.978983
v 6.852883 0.000000 -0.978984
v 6.852883 0.000000 -2.936950
v 6.852883 0.000000 -4.894917
v 4.894917 0.000000 -6.852883
v 6.852883 0.000000 -6.852883
v 8.810850 -0.000000 10.768817
v 8.810850 -1.559453 8.810850
v 8.810850 -1.559453 6.852883
v 8.810850 -1.559453 4.894917
v 8.810850 -1.559453 2.936950
v 8.810850 -0.000000 0.978983
v 8.810850 0.000000 -0.978984
v 8.810850 0.000000 -2.936950
v 8.810850 0.000000 -4.894917
v 8.810850 0.000000 -6.852883
v 10.768817 -0.000000 10.768817
v 10.768817 -0.000000 8.810850
v 10.768817 -0.000000 6.852883
v 10.768817 -0.000000 4.894917
v 10.768817 -0.000000 2.936950
v 10.768817 -0.000000 0.978983
v 10.768817 0.000000 -0.978984
v 10.768817 0.000000 -2.936950
v 10.768817 0.000000 -4.894917
v 10.768817 0.000000 -6.852883
v -2.936950 4.981786 2.936950
v -0.978984 4.981786 2.936950
v -2.936950 4.981786 0.978983
v 0.978983 1.747778 -0.978984
v 0.978983 1.747778 -2.936950
v 4.894917 3.584407 -0.978984
v 2.936950 3.584407 -2.936950
v -2.936950 2.726551 -0.978984
v -4.894917 2.726551 -2.936950
v -2.936950 2.726551 -2.936950
v -4.894917 2.726551 -4.894917
v 0.978983 1.735797 -6.852883
v 2.936950 1.735797 -6.852883
v 0.978983 1.735797 -8.810850
v 4.894917 1.735797 -4.894917
v 4.894917 1.735797 -6.852883
v -3.915934 6.529200 -7.831867
v -2.936950 4.432549 -7.831867
v -4.894917 4.432549 -6.852883
v -2.936950 4.432549 -6.852883
v -4.894917 4.432549 -8.810850
v -4.894917 4.432549 -7.831867
v -3.915934 4.432549 -6.852883
v -8.810850 4.405433 2.936950
v -6.852883 4.405433 4.894917
v -8.810850 2.202716 4.894917
v -7.831867 2.202716 4.894917
v -8.810850 2.202716 6.865045
v -6.852883 2.202716 4.894917
v -8.810850 4.332795 8.810850
v -6.852883 4.332795 8.810850
v -8.810850 4.332795 6.852883
v -7.831867 2.202716 6.865045
v -7.831867 -0.000000 4.894917
v -6.852883 2.202716 6.865045
v -7.831867 4.405433 6.865045
v -8.810850 4.405433 6.865045
v -8.810850 4.405433 4.894917
v -7.831867 4.405433 4.894917
v -6.852883 4.405433 6.865045
v 10.768817 0.000000 -10.768817
v -3.915934 4.432549 -8.810850
vn 0.000000 1.000000 0.000000
vn 0.000000 0.000000 -1.000000
vn 0.000000 -0.000000 1.000000
vn 0.000000 0.884400 0.466700
vn -0.466700 0.884400 0.000000
vn 0.000000 0.884400 -0.466700
vn 0.000000 0.782200 -0.623000
vn 0.575900 0.723000 0.381600
vn 0.798000 0.602600 0.000000
vn 0.623000 0.782200 0.000000
vn 0.000000 0.782200 0.623000
vn -0.623000 0.782200 0.000000
vn 1.000000 0.000000 0.000000
vn -1.000000 0.000000 0.000000
vn -0.684100 0.729300 0.000000
vn 0.906100 0.423100 0.000000
vn -0.906100 0.423100 0.000000
vn 0.000000 0.423100 0.906100
vn 0.000000 -1.000000 0.000000
vn 0.575900 0.723000 -0.381600
vn 0.000000 0.423100 -0.906100
s off
f 1//1 2//1 3//1
f 4//1 5//1 6//1
f 5//1 7//1 8//1
f 7//1 9//1 10//1
f 9//1 11//1 12//1
f 11//1 13//1 14//1
f 13//1 15//1 16//1
f 15//1 17//1 18//1
f 17//1 19//1 20//1
f 19//1 21//1 22//1
f 21//1 1//1 23//1
f 24//1 25//1 26//1
f 26//1 27//1 28//1
f 28//1 29//1 30//1
f 30//1 31//1 32//1
f 32//1 33//1 34//1
f 34//1 35//1 36//1
f 36//1 37//1 38//1
f 38//1 39//1 40//1
f 40//1 41//1 42//1
f 42//1 43//1 4//1
f 25//1 44//1 27//1
f 45//2 29//2 46//2
f 29//1 45//1 31//1
f 47//2 33//2 48//2
f 33//1 47//1 35//1
f 35//1 49//1 37//1
f 37//1 50//1 39//1
f 39//1 51//1 41//1
f 41//1 52//1 43//1
f 43//1 53//1 5//1
f 44//1 54//1 55//1
f 55//1 56//1 45//1
f 45//1 57//1 58//1
f 58//1 59//1 47//1
f 47//1 60//1 49//1
f 49//1 61//1 50//1
f 50//1 62//1 51//1
f 51//1 63//1 52//1
f 52//1 64//1 53//1
f 53//1 65//1 7//1
f 54//1 66//1 56//1
f 56//1 67//1 57//1
f 57//1 68//1 59//1
f 59//1 69//1 60//1
f 60//1 70//1 61//1
f 61//1 71//1 62//1
f 62//3 72//3 73//3
f 74//2 64//2 75//2
f 64//1 74//1 65//1
f 11//2 9//2 76//2
f 66//1 77//1 67//1
f 67//1 78//1 68//1
f 68//1 79//1 69//1
f 69//1 80//1 70//1
f 81//2 71//2 82//2
f 71//1 81//1 72//1
f 72//1 83//1 84//1
f 84//1 85//1 74//1
f 74//1 86//1 87//1
f 87//1 88//1 11//1
f 77//1 89//1 78//1
f 78//1 90//1 79//1
f 79//1 91//1 80//1
f 80//1 92//1 93//1
f 93//1 94//1 81//1
f 81//1 95//1 83//1
f 83//1 96//1 85//1
f 85//1 97//1 86//1
f 86//1 98//1 88//1
f 88//1 99//1 13//1
f 89//1 100//1 90//1
f 90//4 101//4 102//4
f 91//5 102//5 92//5
f 92//5 103//5 94//5
f 94//1 104//1 95//1
f 95//1 105//1 96//1
f 106//3 107//3 108//3
f 97//1 109//1 98//1
f 98//3 110//3 111//3
f 17//2 15//2 112//2
f 100//1 113//1 101//1
f 101//4 114//4 102//4
f 102//1 115//1 103//1
f 103//6 116//6 104//6
f 104//1 117//1 105//1
f 105//1 118//1 106//1
f 119//2 109//2 120//2
f 109//1 119//1 110//1
f 110//3 121//3 122//3
f 19//2 17//2 123//2
f 113//7 124//7 125//7
f 114//8 125//8 115//8
f 115//9 126//9 116//9
f 116//9 127//9 128//9
f 117//10 128//10 118//10
f 118//1 129//1 107//1
f 107//1 130//1 119//1
f 119//1 131//1 121//1
f 121//1 132//1 133//1
f 133//1 134//1 19//1
f 124//7 135//7 125//7
f 125//1 136//1 126//1
f 126//1 137//1 127//1
f 127//1 138//1 128//1
f 128//11 139//11 129//11
f 129//1 140//1 130//1
f 130//1 141//1 131//1
f 131//1 142//1 132//1
f 132//1 143//1 134//1
f 134//1 144//1 21//1
f 135//7 145//7 136//7
f 136//12 146//12 137//12
f 137//12 147//12 138//12
f 138//12 148//12 139//12
f 139//12 149//12 150//12
f 140//1 150//1 141//1
f 141//1 151//1 142//1
f 142//1 152//1 143//1
f 143//1 153//1 144//1
f 154//1 1//1 144//1
f 155//1 156//1 157//1
f 70//3 93//3 155//3
f 93//13 81//13 156//13
f 71//14 70//14 157//14
f 158//15 108//15 159//15
f 108//1 160//1 161//1
f 109//2 97//2 161//2
f 96//3 106//3 108//3
f 107//13 119//13 160//13
f 97//14 96//14 159//14
f 73//1 162//1 163//1
f 163//1 164//1 165//1
f 84//13 74//13 164//13
f 72//13 84//13 162//13
f 64//14 63//14 165//14
f 63//14 62//14 163//14
f 111//1 122//1 166//1
f 166//1 167//1 168//1
f 122//1 169//1 167//1
f 167//1 170//1 112//1
f 133//13 19//13 170//13
f 121//13 133//13 169//13
f 15//14 99//14 168//14
f 99//14 98//14 166//14
f 171//16 172//16 76//16
f 65//3 87//3 173//3
f 87//13 11//13 174//13
f 9//14 65//14 175//14
f 176//17 171//17 175//17
f 173//18 177//18 171//18
f 177//18 174//18 171//18
f 178//1 179//1 48//1
f 180//19 181//19 182//19
f 58//13 47//13 183//13
f 33//14 31//14 180//14
f 184//1 185//1 186//1
f 27//3 55//3 184//3
f 55//13 45//13 185//13
f 29//14 27//14 186//14
f 181//19 183//19 187//19
f 31//3 188//3 180//3
f 188//3 58//3 181//3
f 187//3 189//3 190//3
f 182//3 187//3 191//3
f 192//14 180//14 191//14
f 179//1 193//1 194//1
f 183//13 179//13 189//13
f 193//1 192//1 190//1
f 2//1 195//1 3//1
f 5//1 8//1 6//1
f 7//1 10//1 8//1
f 9//1 12//1 10//1
f 11//1 14//1 12//1
f 13//1 16//1 14//1
f 15//1 18//1 16//1
f 17//1 20//1 18//1
f 19//1 22//1 20//1
f 21//1 23//1 22//1
f 1//1 3//1 23//1
f 25//1 27//1 26//1
f 27//1 29//1 28//1
f 29//1 31//1 30//1
f 31//1 33//1 32//1
f 33//1 35//1 34//1
f 35//1 37//1 36//1
f 37//1 39//1 38//1
f 39//1 41//1 40//1
f 41//1 43//1 42//1
f 43//1 5//1 4//1
f 44//1 55//1 27//1
f 29//2 186//2 46//2
f 45//1 58//1 188//1
f 31//1 45//1 188//1
f 33//2 178//2 48//2
f 47//1 49//1 35//1
f 49//1 50//1 37//1
f 50//1 51//1 39//1
f 51//1 52//1 41//1
f 52//1 53//1 43//1
f 53//1 7//1 5//1
f 54//1 56//1 55//1
f 56//1 57//1 45//1
f 57//1 59//1 58//1
f 59//1 60//1 47//1
f 60//1 61//1 49//1
f 61//1 62//1 50//1
f 62//1 63//1 51//1
f 63//1 64//1 52//1
f 64//1 65//1 53//1
f 65//1 9//1 7//1
f 66//1 67//1 56//1
f 67//1 68//1 57//1
f 68//1 69//1 59//1
f 69//1 70//1 60//1
f 70//1 71//1 61//1
f 71//1 72//1 62//1
f 72//3 162//3 73//3
f 64//2 165//2 75//2
f 74//1 87//1 65//1
f 9//2 175//2 196//2
f 76//2 9//2 196//2
f 77//1 78//1 67//1
f 78//1 79//1 68//1
f 79//1 80//1 69//1
f 80//1 93//1 70//1
f 71//2 157//2 82//2
f 81//1 83//1 72//1
f 83//1 85//1 84//1
f 85//1 86//1 74//1
f 86//1 88//1 87//1
f 88//1 13//1 11//1
f 89//1 90//1 78//1
f 90//1 91//1 79//1
f 91//1 92//1 80//1
f 92//1 94//1 93//1
f 94//1 95//1 81//1
f 95//1 96//1 83//1
f 96//1 97//1 85//1
f 97//1 98//1 86//1
f 98//1 99//1 88//1
f 99//1 15//1 13//1
f 100//1 101//1 90//1
f 91//5 90//5 102//5
f 102//5 103//5 92//5
f 103//6 104//6 94//6
f 104//1 105//1 95//1
f 105//1 106//1 96//1
f 107//3 160//3 108//3
f 109//1 110//1 98//1
f 110//3 122//3 111//3
f 15//2 168//2 112//2
f 113//1 114//1 101//1
f 114//4 115//4 102//4
f 115//1 116//1 103//1
f 116//6 117//6 104//6
f 117//1 118//1 105//1
f 118//1 107//1 106//1
f 109//2 161//2 120//2
f 119//1 121//1 110//1
f 121//3 169//3 122//3
f 17//2 112//2 123//2
f 114//10 113//10 125//10
f 125//9 126//9 115//9
f 126//9 127//9 116//9
f 117//20 116//20 128//20
f 128//11 129//11 118//11
f 129//1 130//1 107//1
f 130//1 131//1 119//1
f 131//1 132//1 121//1
f 132//1 134//1 133//1
f 134//1 21//1 19//1
f 135//7 136//7 125//7
f 136//1 137//1 126//1
f 137//1 138//1 127//1
f 138//1 139//1 128//1
f 139//11 140//11 129//11
f 140//1 141//1 130//1
f 141//1 142//1 131//1
f 142//1 143//1 132//1
f 143//1 144//1 134//1
f 144//1 1//1 21//1
f 145//12 146//12 136//12
f 146//12 147//12 137//12
f 147//12 148//12 138//12
f 148//12 149//12 139//12
f 140//11 139//11 150//11
f 150//1 151//1 141//1
f 151//1 152//1 142//1
f 152//1 153//1 143//1
f 153//1 154//1 144//1
f 2//1 1//1 154//1
f 156//1 82//1 157//1
f 93//3 156//3 155//3
f 81//13 82//13 156//13
f 70//14 155//14 157//14
f 108//15 161//15 159//15
f 160//1 120//1 161//1
f 97//2 159//2 161//2
f 158//3 96//3 108//3
f 119//13 120//13 160//13
f 96//14 158//14 159//14
f 162//1 164//1 163//1
f 164//1 75//1 165//1
f 74//13 75//13 164//13
f 84//13 164//13 162//13
f 63//14 163//14 165//14
f 62//14 73//14 163//14
f 122//1 167//1 166//1
f 167//1 112//1 168//1
f 169//1 170//1 167//1
f 170//1 123//1 112//1
f 19//13 123//13 170//13
f 133//13 170//13 169//13
f 99//14 166//14 168//14
f 98//14 111//14 166//14
f 196//21 171//21 76//21
f 87//3 174//3 177//3
f 173//3 87//3 177//3
f 11//13 76//13 172//13
f 174//13 11//13 172//13
f 65//14 173//14 176//14
f 175//14 65//14 176//14
f 171//21 196//21 175//21
f 176//17 173//17 171//17
f 174//16 172//16 171//16
f 192//1 193//1 178//1
f 193//1 179//1 178//1
f 181//19 187//19 182//19
f 47//13 48//13 179//13
f 183//13 47//13 179//13
f 178//14 33//14 192//14
f 33//14 180//14 192//14
f 185//1 46//1 186//1
f 55//3 185//3 184//3
f 45//13 46//13 185//13
f 27//14 184//14 186//14
f 183//19 189//19 187//19
f 188//3 181//3 180//3
f 58//3 183//3 181//3
f 189//3 194//3 190//3
f 187//3 190//3 191//3
f 180//14 182//14 191//14
f 193//1 190//1 194//1
f 179//13 194//13 189//13
f 192//1 191//1 190//1
